<?xml version="1.0" encoding="UTF-8"?>
<svg id="Camada_1" data-name="Camada 1" xmlns="http://www.w3.org/2000/svg" viewBox="0 0 64 64">
  <defs>
    <style>
      .cls-1 {
        fill: #f5c11d;
      }
    </style>
  </defs>
  <path class="cls-1" d="M29.03,7.17c-9.85,1.53-17.32,8.37-20.4,16.44-3.75,9.86-1.22,19.89,5.76,27.35l-3.78,3.89C-1.81,42.56-1.47,22.75,10.45,10.78s31.88-12.78,44.43-.17l-3.91,3.78c-5.93-5.46-13.64-8.52-21.94-7.23Z"/>
  <path class="cls-1" d="M20.66,50.89c6.56,6.08,15.71,8.11,23.67,4.34,6.54-3.09,10.94-8.59,12.2-14.77,1.53-7.55-.36-14.17-5.69-19.73l4.03-4c10.5,11,10.17,27.84-.26,38.15-10.47,10.35-27.45,10.32-37.97-.21l4.02-3.79Z"/>
  <path class="cls-1" d="M22.15,41.18l-3.66,4.38c-3.74-3.48-5.19-8.04-5.45-13.24-.39-7.61,4.22-14.62,10.66-17.56,7.33-3.34,15.11-2.17,21.7,3.36l-4.02,4.34c-5.4-5.69-13.73-5.18-18.8-.2s-5.92,13.16-.42,18.93Z"/>
</svg>